<?xml version="1.0" encoding="UTF-8" standalone="no"?>
<!-- Created with Inkscape (http://www.inkscape.org/) -->

<svg
   width="15.77mm"
   height="3.3900001mm"
   viewBox="0 0 15.77 3.3900001"
   version="1.1"
   id="svg1"
   inkscape:version="1.3.2 (091e20ef0f, 2023-11-25)"
   sodipodi:docname="wordmark-w.svg"
   xmlns:inkscape="http://www.inkscape.org/namespaces/inkscape"
   xmlns:sodipodi="http://sodipodi.sourceforge.net/DTD/sodipodi-0.dtd"
   xmlns="http://www.w3.org/2000/svg"
   xmlns:svg="http://www.w3.org/2000/svg">
  <sodipodi:namedview
     id="namedview1"
     pagecolor="#ffffff"
     bordercolor="#000000"
     borderopacity="0.25"
     inkscape:showpageshadow="2"
     inkscape:pageopacity="0.0"
     inkscape:pagecheckerboard="0"
     inkscape:deskcolor="#d1d1d1"
     inkscape:document-units="mm"
     inkscape:zoom="22.627417"
     inkscape:cx="25.013902"
     inkscape:cy="8.7725435"
     inkscape:window-width="1920"
     inkscape:window-height="964"
     inkscape:window-x="0"
     inkscape:window-y="40"
     inkscape:window-maximized="1"
     inkscape:current-layer="layer1" />
  <defs
     id="defs1" />
  <g
     inkscape:label="Layer 1"
     inkscape:groupmode="layer"
     id="layer1">
    <path
       style="font-weight:900;font-size:0.352778px;font-family:Ubuntu;-inkscape-font-specification:'Ubuntu Heavy';baseline-shift:baseline;fill:#ffffff;stroke:#ffffff;stroke-width:0;paint-order:markers fill stroke"
       d="M 0,2.7373954 V 0.2927884 H 1.6510805 V 0.75490028 H 0.55036019 V 1.23465 H 1.5276022 V 1.6861793 H 0.55036019 V 2.2752835 H 1.7322233 v 0.4621117 z m 2.8435306,0.035278 Q 2.6142135,2.7691457 2.4695676,2.7232862 2.3284498,2.6774289 2.2437787,2.5962937 2.1626347,2.5116287 2.1308843,2.3952226 2.1026633,2.2752857 2.1026633,2.1271275 V 0.0846617 L 2.6283256,1.0728836e-8 V 2.0212984 q 0,0.070556 0.01058,0.1269925 0.010581,0.056437 0.038812,0.095244 0.031751,0.038808 0.088194,0.063496 0.056443,0.024689 0.1517023,0.031748 z M 4.8262392,0.88189507 Q 4.6674815,1.4180859 4.4946122,1.8872528 4.3217429,2.3564201 4.1171221,2.797366 4.0430381,2.9561067 3.9689479,3.0654612 3.8948649,3.1783435 3.8066621,3.2488954 3.7184681,3.322971 3.6055694,3.3547221 3.4962032,3.39 3.348029,3.39 3.2245511,3.39 3.118712,3.3653115 3.0164011,3.3441427 2.9493699,3.3159244 l 0.091724,-0.4197812 q 0.081144,0.028218 0.1446459,0.038808 0.063503,0.010579 0.1340625,0.010579 0.1411178,0 0.2152053,-0.077605 0.077614,-0.074076 0.1305343,-0.208127 Q 3.4856184,2.3070316 3.3056929,1.8696128 3.1257674,1.4286665 2.9670097,0.88189287 h 0.5574158 q 0.035282,0.13757523 0.081144,0.29984353 0.049392,0.1587407 0.102311,0.3245369 0.052922,0.1622684 0.1058381,0.3174812 0.056443,0.1552128 0.105838,0.2822053 0.045862,-0.1269925 0.095255,-0.2822053 0.049392,-0.1552128 0.095255,-0.3174812 0.049392,-0.1657962 0.091724,-0.3245369 0.045862,-0.1622684 0.081144,-0.29984353 z M 5.6411984,2.3599474 q 0.144646,0 0.2046209,-0.028218 0.059973,-0.028218 0.059973,-0.1093546 0,-0.063496 -0.077614,-0.1093545 Q 5.7505647,2.0636329 5.591806,2.0036655 5.4683281,1.9578082 5.3660172,1.9084211 5.2672324,1.859034 5.196676,1.792011 5.1261126,1.7214551 5.0873097,1.6262148 5.0484979,1.5309704 5.0484979,1.3969223 q 0,-0.2610405 0.1940373,-0.41272578 0.1940374,-0.15168553 0.5327207,-0.15168553 0.1693411,0 0.3245716,0.0317481 0.1552295,0.0282203 0.2469569,0.0634963 L 6.25506,1.3369537 Q 6.163335,1.3052055 6.0539673,1.280517 5.9481292,1.2558285 5.8140667,1.2558285 q -0.2469569,0 -0.2469569,0.1375758 0,0.031748 0.010581,0.056437 0.010581,0.024689 0.042332,0.049387 0.031752,0.021169 0.084674,0.049387 0.056443,0.024689 0.1411178,0.056437 0.1728693,0.063496 0.2857637,0.1269925 0.1128944,0.059966 0.1763975,0.1340481 0.067033,0.070556 0.091724,0.1587406 0.028221,0.088185 0.028221,0.2045989 0,0.2751508 -0.208149,0.4162534 -0.2046209,0.1411027 -0.5821121,0.1411027 -0.2469568,0 -0.4127698,-0.042327 Q 5.0626041,2.702133 4.999101,2.6739046 L 5.087295,2.2470689 q 0.1340625,0.052917 0.2751803,0.084665 0.1411178,0.028218 0.2787084,0.028218 z M 7.3452006,2.7373971 H 6.8195363 V 0.88189287 H 7.3452006 Z M 7.394593,0.34570367 q 0,0.14463045 -0.095255,0.22929214 -0.091724,0.0811342 -0.2187325,0.0811342 -0.1270061,0 -0.2222607,-0.0811342 -0.091724,-0.084662 -0.091724,-0.22929214 0,-0.14463035 0.091724,-0.22576456 0.095255,-0.08466169 0.2222607,-0.08466169 0.1270061,0 0.2187325,0.08466169 0.095255,0.0811342 0.095255,0.22576456 z M 8.5482308,2.3705297 q 0.077614,0 0.1481742,-0.00353 0.070563,-0.00353 0.1128944,-0.010579 V 1.9578073 q -0.031752,-0.00706 -0.095255,-0.014109 -0.063503,-0.00706 -0.1164226,-0.00706 -0.074084,0 -0.1411178,0.010579 -0.063503,0.00706 -0.1128944,0.031748 -0.049392,0.024689 -0.077614,0.067026 -0.028221,0.042327 -0.028221,0.1058267 0,0.1234647 0.081144,0.1728508 0.084674,0.045857 0.2293122,0.045856 z M 8.5058988,0.83250859 q 0.2328442,0 0.3880747,0.0529139 0.1552294,0.0529139 0.2469568,0.15168551 0.095255,0.098774 0.1340625,0.2398748 0.038812,0.1411027 0.038812,0.3139535 V 2.6844834 Q 9.2009103,2.709172 8.9998177,2.7409201 8.798725,2.776198 8.5129602,2.776198 8.3330346,2.776198 8.1848604,2.74445 8.0402145,2.712702 7.9343764,2.64215 7.8285383,2.5680743 7.7720906,2.4516612 7.7156476,2.3352511 7.7156476,2.1659281 q 0,-0.1622684 0.063503,-0.2751508 Q 7.8461836,1.777895 7.9555481,1.710871 8.0649144,1.643845 8.2060322,1.615627 q 0.1411177,-0.031748 0.29282,-0.031748 0.102311,0 0.1799257,0.010579 0.081144,0.00706 0.1305343,0.021169 V 1.56624 q 0,-0.1340481 -0.081144,-0.2151823 -0.081144,-0.081135 -0.2822356,-0.081135 -0.1340625,0 -0.2645957,0.021169 -0.1305343,0.017639 -0.2257889,0.052917 L 7.8885151,0.92069918 q 0.045862,-0.0141102 0.1128944,-0.0282203 0.070563,-0.017638 0.1517023,-0.0282203 0.081144,-0.0141102 0.1693412,-0.0211657 0.091724,-0.0105824 0.1834458,-0.0105843 z M 11.321196,0.2927884 q 0.0635,0.11640991 0.144647,0.2892609 0.0847,0.16932339 0.172868,0.370395 0.0917,0.1975439 0.179929,0.4056707 0.0882,0.2081267 0.165818,0.3915609 0.0776,-0.1834332 0.165818,-0.3915609 0.0882,-0.2081267 0.176398,-0.4056707 0.0917,-0.20107161 0.172869,-0.370395 0.0847,-0.17285099 0.148177,-0.2892609 h 0.500964 q 0.0353,0.24340241 0.0635,0.54677357 0.0317,0.29984353 0.0529,0.62790773 0.0247,0.3245368 0.0423,0.6526004 0.0212,0.3280636 0.0353,0.6173245 h -0.536246 q -0.0106,-0.356285 -0.0282,-0.7760661 -0.0176,-0.4197812 -0.0529,-0.846617 -0.0635,0.1481583 -0.141116,0.3280646 -0.0776,0.1799064 -0.155228,0.3598117 -0.0741,0.1799064 -0.144647,0.3457026 -0.0706,0.1622684 -0.119946,0.2786785 h -0.384548 q -0.0494,-0.1164101 -0.119946,-0.2786785 -0.0706,-0.1657962 -0.148177,-0.3457026 -0.0741,-0.1799063 -0.151697,-0.3598117 -0.0776,-0.1799063 -0.141117,-0.3280646 -0.0353,0.4268358 -0.0529,0.846617 -0.0176,0.4197811 -0.0282,0.7760661 H 10.60157 q 0.0141,-0.2892609 0.0317,-0.6173245 0.0212,-0.3280646 0.0423,-0.6526004 0.0247,-0.3280637 0.0529,-0.62790773 0.0318,-0.30337116 0.067,-0.54677357 z m 3.630258,2.493993 q -0.596219,0 -0.910214,-0.3315914 -0.310455,-0.3315914 -0.310455,-0.9418614 0,-0.303371 0.0953,-0.53971835 0.0953,-0.23987492 0.261063,-0.40214323 0.165818,-0.1657958 0.395129,-0.25045749 0.229311,-0.084662 0.497444,-0.084662 0.155227,0 0.282234,0.0246925 0.127006,0.0211657 0.22226,0.0529139 0.0953,0.0282203 0.158758,0.0599685 0.0635,0.0317481 0.0917,0.0493861 L 15.575901,0.86778266 Q 15.463006,0.80781386 15.311305,0.765483 15.163131,0.7231522 14.972622,0.7231522 q -0.127006,0 -0.250482,0.0423305 -0.119946,0.0423305 -0.215201,0.13757537 -0.0917,0.0917166 -0.148177,0.23987473 -0.0564,0.1481583 -0.0564,0.3598118 0,0.169324 0.0353,0.3174812 0.0388,0.1446305 0.119946,0.2504573 0.0847,0.1058267 0.21873,0.1693229 0.134067,0.059966 0.324576,0.059966 0.119946,0 0.2152,-0.014109 0.0953,-0.014109 0.169338,-0.031748 0.0741,-0.021169 0.130537,-0.045857 0.0564,-0.024689 0.102315,-0.045857 L 15.77,2.6033475 q -0.116426,0.070556 -0.328096,0.1269925 -0.21168,0.056437 -0.490383,0.056437 z"
       id="text1"
       aria-label="Elysia MC" />
  </g>
</svg>
